<?xml version="1.0" encoding="UTF-8" standalone="no"?>
<!DOCTYPE svg PUBLIC "-//W3C//DTD SVG 1.1//EN"
 "http://www.w3.org/Graphics/SVG/1.1/DTD/svg11.dtd">
<!-- Generated by graphviz version 13.1.2 (20250808.2320)
 -->
<!-- Title: packages_FourInARow Pages: 1 -->
<svg width="140pt" height="260pt"
 viewBox="0.00 0.00 140.00 260.00" xmlns="http://www.w3.org/2000/svg" xmlns:xlink="http://www.w3.org/1999/xlink">
<g id="graph0" class="graph" transform="scale(1 1) rotate(0) translate(4 256)">
<title>packages_FourInARow</title>
<polygon fill="white" stroke="none" points="-4,4 -4,-256 136,-256 136,4 -4,4"/>
<!-- app -->
<g id="node1" class="node">
<title>app</title>
<polygon fill="none" stroke="black" points="132,-36 78,-36 78,0 132,0 132,-36"/>
<text xml:space="preserve" text-anchor="start" x="95.25" y="-12.95" font-family="Times,serif" font-size="14.00">app</text>
</g>
<!-- board -->
<g id="node2" class="node">
<title>board</title>
<polygon fill="none" stroke="black" points="54,-108 0,-108 0,-72 54,-72 54,-108"/>
<text xml:space="preserve" text-anchor="start" x="11.62" y="-84.95" font-family="Times,serif" font-size="14.00">board</text>
</g>
<!-- app&#45;&gt;board -->
<g id="edge1" class="edge">
<title>app&#45;&gt;board</title>
<path fill="none" stroke="black" d="M85.72,-36.3C76.34,-44.72 64.91,-54.98 54.62,-64.21"/>
<polygon fill="black" stroke="black" points="47.24,-70.84 51.67,-60.81 50.05,-68.31 54.68,-64.16 54.68,-64.16 54.68,-64.16 50.05,-68.31 57.68,-67.51 47.24,-70.84"/>
</g>
<!-- heuristics -->
<g id="node3" class="node">
<title>heuristics</title>
<polygon fill="none" stroke="black" points="97.88,-252 30.12,-252 30.12,-216 97.88,-216 97.88,-252"/>
<text xml:space="preserve" text-anchor="start" x="38.12" y="-228.95" font-family="Times,serif" font-size="14.00">heuristics</text>
</g>
<!-- app&#45;&gt;heuristics -->
<g id="edge2" class="edge">
<title>app&#45;&gt;heuristics</title>
<path fill="none" stroke="black" d="M102.34,-36.47C102.87,-66.64 108.39,-130.06 92,-180 88.91,-189.4 83.57,-198.61 78.25,-206.65"/>
<polygon fill="black" stroke="black" points="72.62,-214.8 74.6,-204.01 74.77,-211.69 78.3,-206.57 78.3,-206.57 78.3,-206.57 74.77,-211.69 82,-209.13 72.62,-214.8"/>
</g>
<!-- players -->
<g id="node4" class="node">
<title>players</title>
<polygon fill="none" stroke="black" points="91.5,-180 36.5,-180 36.5,-144 91.5,-144 91.5,-180"/>
<text xml:space="preserve" text-anchor="start" x="44.5" y="-156.95" font-family="Times,serif" font-size="14.00">players</text>
</g>
<!-- app&#45;&gt;players -->
<g id="edge3" class="edge">
<title>app&#45;&gt;players</title>
<path fill="none" stroke="black" d="M99.97,-36.41C92.99,-60.6 80.27,-104.64 71.98,-133.35"/>
<polygon fill="black" stroke="black" points="69.28,-142.72 67.73,-131.86 70.33,-139.09 72.05,-133.11 72.05,-133.11 72.05,-133.11 70.33,-139.09 76.38,-134.36 69.28,-142.72"/>
</g>
<!-- board&#45;&gt;heuristics -->
<g id="edge4" class="edge">
<title>board&#45;&gt;heuristics</title>
<path fill="none" stroke="black" d="M17.64,-108.19C13.12,-126.46 11.46,-155.97 19,-180 22,-189.56 27.35,-198.96 33.41,-207.12"/>
<polygon fill="black" stroke="black" points="39.7,-214.81 29.89,-209.92 37.31,-211.88 33.37,-207.07 33.37,-207.07 33.37,-207.07 37.31,-211.88 36.85,-204.22 39.7,-214.81"/>
</g>
<!-- board&#45;&gt;players -->
<g id="edge5" class="edge">
<title>board&#45;&gt;players</title>
<path fill="none" stroke="black" d="M30.23,-108.3C33.58,-116.19 38.39,-125.7 43.4,-134.45"/>
<polygon fill="black" stroke="black" points="48.44,-142.85 39.43,-136.59 46.49,-139.61 43.29,-134.28 43.29,-134.28 43.29,-134.28 46.49,-139.61 47.15,-131.96 48.44,-142.85"/>
</g>
<!-- heuristics&#45;&gt;app -->
<g id="edge6" class="edge">
<title>heuristics&#45;&gt;app</title>
<path fill="none" stroke="black" d="M87.88,-215.8C96.84,-206.07 105.66,-193.22 110,-180 124.66,-135.32 121.79,-79.87 115.54,-47.07"/>
<polygon fill="black" stroke="black" points="113.47,-37.66 120.01,-46.46 114.28,-41.36 115.62,-47.43 115.62,-47.43 115.62,-47.43 114.28,-41.36 111.22,-48.4 113.47,-37.66"/>
</g>
<!-- heuristics&#45;&gt;board -->
<g id="edge7" class="edge">
<title>heuristics&#45;&gt;board</title>
<path fill="none" stroke="black" stroke-dasharray="5,2" d="M56.43,-215.76C49.7,-206.01 41.13,-193.16 37,-180 30.85,-160.38 30.82,-137.11 30.95,-119.28"/>
<polygon fill="black" stroke="black" points="30.99,-109.41 35.45,-119.42 30.97,-113.19 30.95,-119.41 30.95,-119.41 30.95,-119.41 30.97,-113.19 26.45,-119.39 30.99,-109.41"/>
</g>
<!-- players&#45;&gt;board -->
<g id="edge8" class="edge">
<title>players&#45;&gt;board</title>
<path fill="none" stroke="black" stroke-dasharray="5,2" d="M60.85,-143.9C57.52,-136.04 52.73,-126.54 47.73,-117.77"/>
<polygon fill="black" stroke="black" points="42.69,-109.35 51.69,-115.62 44.63,-112.59 47.83,-117.93 47.83,-117.93 47.83,-117.93 44.63,-112.59 43.97,-120.24 42.69,-109.35"/>
</g>
<!-- players&#45;&gt;heuristics -->
<g id="edge9" class="edge">
<title>players&#45;&gt;heuristics</title>
<path fill="none" stroke="black" stroke-dasharray="5,2" d="M64,-180.3C64,-187.68 64,-196.48 64,-204.75"/>
<polygon fill="black" stroke="black" points="64,-214.68 59.5,-204.68 64,-210.9 64,-204.68 64,-204.68 64,-204.68 64,-210.9 68.5,-204.68 64,-214.68"/>
</g>
</g>
</svg>
